# xmcd CD database file
# Copyright (C) 1995 Ti Kan
#
# Track frame offsets:
#	150
#	13083
#	24552
#	33005
#	46247
#	58977
#	69837
#	82139
#	93874
#	106361
#	116280
#	126752
#	138657
#	150621
#	161194
#	171308
#	182566
#	193342
#	204121
#	217988
#	231860
#	245667
#	260426
#	279272
#	291496
#
# Disc length: 4164 seconds
#
# Revision: 1
# Processed by: cddbd v1.4PL0 Copyright (c) Steve Scherf et al.
# Submitted via: NotifyCDPlayer 1.60beta16
#
DISCID=67104219
DTITLE=Bill Monroe - An Introduction To Bill Monroe and The Bluegass Boys 
DYEAR=1900
DGENRE=
TTITLE0=My Sweet Blue-Eyed Darlin'
TTITLE1=Gotta Travel On 
TTITLE2=Scotland
TTITLE3=Cryin' Holy Unto The Lord
TTITLE4=I'm Blue I'm Lonesome 
TTITLE5=I'm On My Way To The Old Home
TTITLE6=Uncle Pen 
TTITLE7=Raw Hide 
TTITLE8=On And On 
TTITLE9=White House Blues
TTITLE10=Wheel Hoss 
TTITLE11=Roanoke
TTITLE12=Blue Moon Of Kentucky (Live) 
TTITLE13=A Good Woman's Love 
TTITLE14=Big Mon 
TTITLE15=Lonesome Road Blues
TTITLE16=I'm Going Back To Old Kentucky 
TTITLE17=Big Sandy River 
TTITLE18=Kentucky Mandolin 
TTITLE19=With Body And Soul 
TTITLE20=Kentucky Waltz 
TTITLE21=Southern Flavor
TTITLE22=Fiddler Roll Call - Down Yonder 
TTITLE23=I'm Working On A Building 
TTITLE24=My Last Days On Earth 
EXTD=
EXTT0=
EXTT1=
EXTT2=
EXTT3=
EXTT4=
EXTT5=
EXTT6=
EXTT7=
EXTT8=
EXTT9=
EXTT10=
EXTT11=
EXTT12=
EXTT13=
EXTT14=
EXTT15=
EXTT16=
EXTT17=
EXTT18=
EXTT19=
EXTT20=
EXTT21=
EXTT22=
EXTT23=
EXTT24=
PLAYORDER=
